<?xml version="1.0" standalone="no"?><!DOCTYPE svg PUBLIC "-//W3C//DTD SVG 1.1//EN" "http://www.w3.org/Graphics/SVG/1.1/DTD/svg11.dtd"><svg width="200" height="200" viewBox="0 0 200 200" version="1.1" xmlns="http://www.w3.org/2000/svg" xmlns:xlink="http://www.w3.org/1999/xlink"><defs><style type="text/css"><![CDATA[
@font-face { font-family: ifont; src: url("http://at.alicdn.com/t/font_1442373896_4754455.eot?#iefix") format("embedded-opentype"), url("http://at.alicdn.com/t/font_1442373896_4754455.woff") format("woff"), url("http://at.alicdn.com/t/font_1442373896_4754455.ttf") format("truetype"), url("http://at.alicdn.com/t/font_1442373896_4754455.svg#ifont") format("svg"); }

]]></style></defs><g class="transform-group"><g transform="scale(0.1953125, 0.1953125)"><path d="M510.574534 133.557832c-208.634738 0-377.75553 169.150468-377.75553 377.785206s169.120792 377.75553 377.75553 377.75553c208.635761 0 377.785206-169.120792 377.785206-377.75553S719.210295 133.557832 510.574534 133.557832zM693.576475 640.887462c9.586332 9.586332 8.384971 26.323529-2.673899 37.411051l-13.371542 13.34289c-11.057847 11.056823-27.796066 12.259208-37.382399 2.673899L510.574534 564.771901 381.03011 694.315302c-9.586332 9.586332-26.324552 8.383948-37.412075-2.673899l-13.341866-13.34289c-11.056823-11.088546-12.259208-27.825742-2.673899-37.411051L457.145671 511.343037 327.601246 381.798613c-9.586332-9.616008-8.383948-26.354228 2.673899-37.412075l13.341866-13.341866c11.088546-11.088546 27.826765-12.260232 37.412075-2.674922l129.544425 129.545448 129.574101-129.545448c9.586332-9.586332 26.324552-8.413624 37.382399 2.674922l13.371542 13.341866c11.057847 11.057847 12.259208 27.796066 2.673899 37.412075L564.003398 511.343037 693.576475 640.887462z" fill="#272636"></path></g></g></svg>