<?xml version="1.0" standalone="no"?><!DOCTYPE svg PUBLIC "-//W3C//DTD SVG 1.1//EN" "http://www.w3.org/Graphics/SVG/1.1/DTD/svg11.dtd"><svg width="200" height="200" viewBox="0 0 200 200" version="1.1" xmlns="http://www.w3.org/2000/svg" xmlns:xlink="http://www.w3.org/1999/xlink"><defs><style type="text/css"><![CDATA[
@font-face { font-family: ifont; src: url("http://at.alicdn.com/t/font_1442373896_4754455.eot?#iefix") format("embedded-opentype"), url("http://at.alicdn.com/t/font_1442373896_4754455.woff") format("woff"), url("http://at.alicdn.com/t/font_1442373896_4754455.ttf") format("truetype"), url("http://at.alicdn.com/t/font_1442373896_4754455.svg#ifont") format("svg"); }

]]></style></defs><g class="transform-group"><g transform="scale(0.1953125, 0.1953125)"><path d="M810.092 819.007c-74.264 40.218-158.087 60.257-251.53 60.257-107.664 0-194.314-32.364-260.077-97.043-65.777-64.681-98.652-151.030-98.652-259.148 0-109.286 36.346-199.116 108.998-269.436 72.63-70.343 165.716-105.495 279.46-105.495 80.331 0 148.337 12.182 204.015 36.511v98.652c-59.447-35.618-130.35-53.439-212.672-53.439-81.034 0-147.765 26.345-200.238 79.020-52.498 52.676-78.744 122.063-78.744 208.211 0 88.639 24.163 157.587 72.511 206.95 48.325 49.266 113.612 73.978 195.946 73.978 56.67 0 104.792-10.442 144.463-31.029v-191.428h-161.282v-80.832h257.802v324.269zM500.211 10.391h93.646v161.115h-93.646v-161.115zM500.211 866.832h93.646v155.3h-93.646v-155.3z" fill="#272636"></path></g></g></svg>