<?xml version="1.0" standalone="no"?><!DOCTYPE svg PUBLIC "-//W3C//DTD SVG 1.1//EN" "http://www.w3.org/Graphics/SVG/1.1/DTD/svg11.dtd"><svg width="200" height="200" viewBox="0 0 200 200" version="1.1" xmlns="http://www.w3.org/2000/svg" xmlns:xlink="http://www.w3.org/1999/xlink"><defs><style type="text/css"><![CDATA[
@font-face { font-family: ifont; src: url("//at.alicdn.com/t/font_1442373896_4754455.eot?#iefix") format("embedded-opentype"), url("//at.alicdn.com/t/font_1442373896_4754455.woff") format("woff"), url("//at.alicdn.com/t/font_1442373896_4754455.ttf") format("truetype"), url("//at.alicdn.com/t/font_1442373896_4754455.svg#ifont") format("svg"); }

]]></style></defs><g class="transform-group"><g transform="scale(0.1953125, 0.1953125)"><path d="M512 0.01536c-282.787694 0-511.99232 229.246609-511.99232 511.99232 0 282.766191 229.204626 511.99232 511.99232 511.99232 282.662768 0 511.99232-229.22613 511.99232-511.99232C1023.99232 229.261969 794.662768 0.01536 512 0.01536zM298.670208 554.674048c-23.58339 0-42.666368-19.081954-42.666368-42.666368 0-23.582366 19.082978-42.665344 42.666368-42.665344 23.540383 0 42.665344 19.082978 42.665344 42.665344C341.335552 535.592094 322.210591 554.674048 298.670208 554.674048zM512 554.674048c-23.582366 0-42.666368-19.081954-42.666368-42.666368 0-23.582366 19.084002-42.665344 42.666368-42.665344 23.541407 0 42.666368 19.082978 42.666368 42.665344C554.666368 535.592094 535.541407 554.674048 512 554.674048zM725.329792 554.674048c-23.582366 0-42.665344-19.081954-42.665344-42.666368 0-23.582366 19.082978-42.665344 42.665344-42.665344 23.541407 0 42.666368 19.082978 42.666368 42.665344C767.99616 535.592094 748.871199 554.674048 725.329792 554.674048z" fill="#272636"></path></g></g></svg>