<svg xmlns="http://www.w3.org/2000/svg" viewBox="0 0 64 60.343"><title>资源 1</title><g id="图层_2" data-name="图层 2"><g id="图层_1-2" data-name="图层 1"><path d="M32.813,4.267V1.016A1.018,1.018,0,0,0,31.8,0a1.092,1.092,0,0,0-1.016,1.016h0V4.267A31.8,31.8,0,0,0,0,35.861c0,1.117.1,2.235.2,3.352l2.133-.1a6.607,6.607,0,0,1,13.206.3h2.133a6.6,6.6,0,1,1,13.206,0h0V55.67a2.54,2.54,0,0,1-5.079,0h0a1.016,1.016,0,1,0-2.032,0h0a4.673,4.673,0,1,0,9.346,0V39.314a6.6,6.6,0,0,1,13.206.1h2.133a6.607,6.607,0,0,1,13.206-.3l2.133.1c.1-1.117.2-2.337.2-3.454A32.424,32.424,0,0,0,32.813,4.267ZM54.655,30.781a8.608,8.608,0,0,0-7.619,4.571,8.728,8.728,0,0,0-7.619-4.571A8.608,8.608,0,0,0,31.8,35.353a8.728,8.728,0,0,0-7.619-4.571,8.608,8.608,0,0,0-7.619,4.571A8.728,8.728,0,0,0,8.94,30.781a8.8,8.8,0,0,0-6.7,3.149,29.637,29.637,0,0,1,59.124,0,8.2,8.2,0,0,0-6.7-3.149Z"/></g></g></svg>